<?xml version="1.0" encoding="UTF-8" standalone="no"?>
<!DOCTYPE svg PUBLIC "-//W3C//DTD SVG 1.1//EN" "http://www.w3.org/Graphics/SVG/1.1/DTD/svg11.dtd">
<svg version="1.1" xmlns="http://www.w3.org/2000/svg" xmlns:xlink="http://www.w3.org/1999/xlink" preserveAspectRatio="xMidYMid meet" viewBox="236.01707763671874 196.23522949218756 95.19999999999993 95.19999999999993" width="16" height="16"><defs><path d="M328.22 242.84C328.22 268 307.78 288.44 282.62 288.44C257.45 288.44 237.02 268 237.02 242.84C237.02 217.67 257.45 197.24 282.62 197.24C307.78 197.24 328.22 217.67 328.22 242.84Z" id="b17534ehuf"></path><linearGradient id="gradientc2AXXhNQP7" gradientUnits="userSpaceOnUse" x1="237.02" y1="242.84" x2="328.22" y2="242.84"><stop style="stop-color: #ff8a00;stop-opacity: 1" offset="0%"></stop><stop style="stop-color: #e52e71;stop-opacity: 1" offset="100%"></stop></linearGradient><path d="M295.71 223.56C299.09 223.56 301.89 226.36 301.89 229.74C301.89 233.14 299.09 235.92 295.71 235.92C292.32 235.92 289.54 233.14 289.54 229.74C289.54 229.12 289.64 228.54 289.82 228.01C287.62 226.96 285.19 226.36 282.62 226.36C273.52 226.36 266.14 233.74 266.14 242.84C266.15 242.95 266.18 243.53 266.22 244.57L262.13 245C262.07 243.7 262.03 242.98 262.02 242.84C262.02 231.46 271.24 222.24 282.62 222.24C286.1 222.24 289.37 223.11 292.23 224.63C293.24 223.95 294.44 223.56 295.71 223.56M295.71 227.68C294.58 227.68 293.66 228.6 293.66 229.74C293.66 230.88 294.58 231.8 295.71 231.8C296.87 231.8 297.77 230.87 297.77 229.74C297.77 228.58 296.87 227.68 295.71 227.68M269.52 249.75C272.92 249.75 275.7 252.53 275.7 255.93C275.7 256.55 275.59 257.13 275.41 257.66C277.61 258.71 280.04 259.31 282.62 259.31C291.72 259.31 299.09 251.93 299.09 242.84C299.09 242.72 299.06 242.14 299.01 241.11L303.11 240.67C303.17 241.97 303.2 242.69 303.21 242.84C303.21 254.21 293.99 263.43 282.62 263.43C279.14 263.43 275.86 262.56 273 261.04C271.99 261.72 270.8 262.11 269.52 262.11C266.14 262.11 263.34 259.31 263.34 255.93C263.34 252.53 266.14 249.75 269.52 249.75M269.52 253.87C268.37 253.87 267.46 254.8 267.46 255.93C267.46 257.09 268.37 257.99 269.52 257.99C270.66 257.99 271.58 257.07 271.58 255.93C271.58 254.8 270.66 253.87 269.52 253.87M290.85 242.84C290.85 247.38 287.17 251.07 282.62 251.07C278.07 251.07 274.38 247.38 274.38 242.84C274.38 238.29 278.07 234.6 282.62 234.6C287.17 234.6 290.85 238.29 290.85 242.84Z" id="e8sRej6AY"></path></defs><g><g><use xlink:href="#b17534ehuf" opacity="1" fill="url(#gradientc2AXXhNQP7)"></use></g><g><use xlink:href="#e8sRej6AY" opacity="1" fill="#2e2a2a" fill-opacity="1"></use><g><use xlink:href="#e8sRej6AY" opacity="1" fill-opacity="0" stroke="#000000" stroke-width="1" stroke-opacity="0"></use></g></g></g></svg>