<?xml version="1.0" encoding="UTF-8" standalone="no"?>
<!DOCTYPE svg PUBLIC "-//W3C//DTD SVG 1.1//EN" "http://www.w3.org/Graphics/SVG/1.1/DTD/svg11.dtd">
<svg version="1.1" xmlns="http://www.w3.org/2000/svg" xmlns:xlink="http://www.w3.org/1999/xlink" preserveAspectRatio="xMidYMid meet" viewBox="84.56374993241968 163.0502330287425 251.22961959356638 131.11899436904443" width="247.23" height="127.12"><defs><path d="M148.74 291.17C147.83 291.17 147.01 290.71 146.23 289.81C146.23 288.87 146.23 284.15 146.23 275.67C146.77 275.67 151.11 275.67 151.65 275.67C151.65 284.15 151.65 288.87 151.65 289.81C150.62 290.71 149.65 291.17 148.74 291.17Z" id="c3eZBomtlC"></path><path d="M148.74 291.17C147.83 291.17 147.01 290.71 146.23 289.81C146.23 288.87 146.23 284.15 146.23 275.67C146.77 275.67 151.11 275.67 151.65 275.67C151.65 284.15 151.65 288.87 151.65 289.81C150.62 290.71 149.65 291.17 148.74 291.17Z" id="c1Ub6QPG4t"></path><path d="M200.26 277.6C200.91 277.6 204.13 277.6 209.94 277.6L299.26 277.6C299.26 273.88 299.26 271.82 299.26 271.4C187.22 271.4 124.97 271.4 112.52 271.4C110.84 272.44 110.01 273.47 110.01 274.51C110.01 275.55 110.84 276.57 112.52 277.6C118.37 277.6 147.62 277.6 200.26 277.6Z" id="g1ptFvfbpm"></path><path d="M200.26 277.6C200.91 277.6 204.13 277.6 209.94 277.6L299.26 277.6C299.26 273.88 299.26 271.82 299.26 271.4C187.22 271.4 124.97 271.4 112.52 271.4C110.84 272.44 110.01 273.47 110.01 274.51C110.01 275.55 110.84 276.57 112.52 277.6C118.37 277.6 147.62 277.6 200.26 277.6Z" id="choXvZslu"></path><path d="M276.69 291.17C275.78 291.17 274.95 290.71 274.17 289.81C274.17 288.87 274.17 284.15 274.17 275.67C274.71 275.67 279.05 275.67 279.6 275.67C279.6 284.15 279.6 288.87 279.6 289.81C278.56 290.71 277.59 291.17 276.69 291.17Z" id="b6qVdSn0f2"></path><path d="M276.69 291.17C275.78 291.17 274.95 290.71 274.17 289.81C274.17 288.87 274.17 284.15 274.17 275.67C274.71 275.67 279.05 275.67 279.6 275.67C279.6 284.15 279.6 288.87 279.6 289.81C278.56 290.71 277.59 291.17 276.69 291.17Z" id="a3mw1T0e6w"></path><path d="M222.19 270.67C221.2 268.62 221.2 267.02 222.19 265.87C223.68 264.14 225.07 264.4 228.15 263.75C230.19 263.32 231.14 263.32 233.31 263.75C233.9 264.93 232.99 273.94 233.57 275.12C235.59 275.12 239.12 275.29 243.2 274.5C247.28 273.71 248.54 272.99 249.89 271.96C252.19 271.96 270.58 271.96 272.88 271.96C273.27 268.4 274.27 266.05 275.87 264.85C277.49 263.67 279.71 263.67 282.55 264.85C283.58 265.65 291.86 271.99 292.89 272.78C294.22 273.36 295.65 273.75 297.17 273.94C298.69 274.13 300.33 274.13 302.07 273.94C308.81 274.12 314.17 271.32 318.15 265.5C322.13 259.69 323.4 250.66 321.95 238.38C320.39 230.28 317.62 223.23 313.64 217.26C309.66 211.29 304.47 206.38 298.06 202.55C290.31 198.78 283.53 196.52 277.71 195.76C271.9 195.01 267.06 195.35 263.2 196.78C259.66 190.54 255.22 185.76 249.89 182.43C244.57 179.08 238.35 177.62 231.23 178.01C223.73 178 217.26 179.46 211.83 182.43C206.39 185.38 202 189.82 198.63 195.76C198.61 195.85 198.59 195.91 198.59 195.93C196.2 205.26 196.74 215.1 200.1 224.13C200.71 225.74 202.22 229.77 204.63 236.21C202.43 235.8 201.06 235.55 200.5 235.45C196.8 234.76 193.02 234.56 189.26 234.83C189.26 234.83 178.42 236.07 174.7 239.44C170.99 242.81 171.94 246.13 174.41 248.29C176.05 249.73 178.52 250.79 181.83 251.48C189.87 253.52 195.1 255.44 197.54 257.25C201.35 260.08 203.88 264.06 207.05 265.87C213.3 269.42 218.35 271.02 222.19 270.67Z" id="e7SDpG4uhW"></path><path d="M239.45 204.46C239.45 201.58 241.78 199.26 244.66 199.26C247.53 199.26 249.86 201.58 249.86 204.46C249.86 207.33 247.53 209.67 244.66 209.67C241.78 209.67 239.45 207.33 239.45 204.46Z" id="c1xqawdUR"></path><path d="M239.45 204.46C239.45 201.58 241.78 199.26 244.66 199.26C247.53 199.26 249.86 201.58 249.86 204.46C249.86 207.33 247.53 209.67 244.66 209.67C241.78 209.67 239.45 207.33 239.45 204.46Z" id="cUdyZTrbW"></path><path d="M209.9 204.46C209.9 201.58 212.24 199.26 215.12 199.26C217.99 199.26 220.32 201.58 220.32 204.46C220.32 207.33 217.99 209.67 215.12 209.67C212.24 209.67 209.9 207.33 209.9 204.46Z" id="aKDP2eWl"></path><path d="M209.9 204.46C209.9 201.58 212.24 199.26 215.12 199.26C217.99 199.26 220.32 201.58 220.32 204.46C220.32 207.33 217.99 209.67 215.12 209.67C212.24 209.67 209.9 207.33 209.9 204.46Z" id="c3zc1TUIyo"></path><path d="M210.93 204.46C210.93 202.15 212.82 200.27 215.12 200.27C217.43 200.27 219.3 202.15 219.3 204.46C219.3 206.76 217.43 208.64 215.12 208.64C212.82 208.64 210.93 206.76 210.93 204.46Z" id="e1FfuEbnjR"></path><path d="M210.93 204.46C210.93 202.15 212.82 200.27 215.12 200.27C217.43 200.27 219.3 202.15 219.3 204.46C219.3 206.76 217.43 208.64 215.12 208.64C212.82 208.64 210.93 206.76 210.93 204.46Z" id="d3m6eFxGsw"></path><path d="M240.47 204.46C240.47 202.15 242.35 200.27 244.66 200.27C246.96 200.27 248.84 202.15 248.84 204.46C248.84 206.76 246.96 208.64 244.66 208.64C242.35 208.64 240.47 206.76 240.47 204.46Z" id="b1d3CNHX9u"></path><path d="M240.47 204.46C240.47 202.15 242.35 200.27 244.66 200.27C246.96 200.27 248.84 202.15 248.84 204.46C248.84 206.76 246.96 208.64 244.66 208.64C242.35 208.64 240.47 206.76 240.47 204.46Z" id="bhGLGL4VD"></path><path d="M293.4 268.29C290.87 267.4 288.54 266.02 286.42 264.55C283.23 262.32 283.44 260.72 280.98 259.81C278.5 258.91 278.22 259.33 276.54 259.81C275.43 260.14 274.55 260.66 273.92 261.35C272.6 262.62 271.73 263.98 271.29 265.44C270.85 266.89 270.85 268.43 271.29 270.07C272.93 273.36 275.03 276.12 277.56 278.35C280.08 280.59 283.04 282.29 286.46 283.47C291.54 285.32 296.49 286.21 301.3 286.14C306.13 286.05 310.8 285 315.36 282.98C320.56 280.9 324.61 277.76 327.52 273.6C330.43 269.43 332.18 264.22 332.79 257.96C332.69 253.78 331.69 250.24 329.8 247.35C327.92 244.48 325 242.26 321.39 240.69C321.78 247.17 321.13 252.6 319.06 257C315.98 263.57 315.96 264.18 309.54 267.01C305.26 268.88 299.89 269.31 293.4 268.29Z" id="b4x0sDJGQ0"></path><path d="M207.61 172.24C204.03 169.29 201.02 167.42 198.59 166.61C196.15 165.8 194.26 166.06 192.97 167.39C192.03 172.11 192.03 176.88 192.97 181.72C193.89 186.56 195.78 191.47 198.59 196.44C200.8 192.33 203.68 188.88 207.2 186.1C210.71 183.32 214.88 181.22 219.7 179.78C218.49 179.03 208.81 173 207.61 172.24Z" id="e3Et88wdj"></path><path d="M207.61 172.24C204.03 169.29 201.02 167.42 198.59 166.61C196.15 165.8 194.26 166.06 192.97 167.39C192.03 172.11 192.03 176.88 192.97 181.72C193.89 186.56 195.78 191.47 198.59 196.44C200.8 192.33 203.68 188.88 207.2 186.1C210.71 183.32 214.88 181.22 219.7 179.78C218.49 179.03 208.81 173 207.61 172.24Z" id="a1geblJ7n4"></path><path d="M203.54 186.75C204.94 186.99 205.03 186.46 204.89 185.2C204.74 183.94 202.18 182.39 202.96 181.71C203.73 181.03 206.73 182.73 207.99 182.49C208.83 182.32 208.83 181.74 207.99 180.74C200.59 174.64 195.96 170.82 194.11 169.3C193.56 168.84 192.73 169.1 192.52 169.78C191.71 172.44 191.62 175.65 192.26 179.38C192.74 182.18 193.63 185.52 195.13 189.2C195.54 190.24 195.83 191.29 196.37 192.38C196.55 192.76 196.86 193.41 197.29 194.31C197.7 194.86 197.98 195.31 198.13 195.66C199.29 192.23 199.72 190.49 199.85 188.88C200.05 186.46 198.6 184.76 199.27 184.23C199.95 183.7 202.13 186.51 203.54 186.75Z" id="anJdtkQ8H"></path><path d="M203.54 186.75C204.94 186.99 205.03 186.46 204.89 185.2C204.74 183.94 202.18 182.39 202.96 181.71C203.73 181.03 206.73 182.73 207.99 182.49C208.83 182.32 208.83 181.74 207.99 180.74C200.59 174.64 195.96 170.82 194.11 169.3C193.56 168.84 192.73 169.1 192.52 169.78C191.71 172.44 191.62 175.65 192.26 179.38C192.74 182.18 193.63 185.52 195.13 189.2C195.54 190.24 195.83 191.29 196.37 192.38C196.55 192.76 196.86 193.41 197.29 194.31C197.7 194.86 197.98 195.31 198.13 195.66C199.29 192.23 199.72 190.49 199.85 188.88C200.05 186.46 198.6 184.76 199.27 184.23C199.95 183.7 202.13 186.51 203.54 186.75Z" id="h4X6zsJ9O"></path><path d="M94.86 192.45C92.53 190.51 89.67 188.35 86.26 185.94C94.31 185.98 100.93 185.5 106.13 184.5C111.34 183.51 115.5 182.5 118.61 181.49C124.63 179.36 130.15 176.98 135.19 174.29C140.22 171.62 143.4 168.9 144.71 166.19C144.73 166.77 144.8 169.68 144.96 174.92C143.68 182.01 142.97 185.95 142.82 186.74C158.33 193.16 168 202.65 171.85 215.24C175.69 227.83 173.69 243.5 165.88 262.26C165.24 263.58 163.16 265.13 159.68 266.91C154.45 269.58 151.11 270.65 144.96 272.14C140.86 273.14 138.02 273.4 136.44 272.92C118.26 264.78 106.26 254.52 100.41 242.12C94.57 229.73 94.89 215.19 101.38 198.54C99.35 196.41 97.18 194.39 94.86 192.45Z" id="a56ZQvkaj"></path><path d="M85.65 185C84.42 181.1 96.62 173.77 112.91 168.65C129.18 163.53 143.39 162.53 144.63 166.44C145.86 170.34 133.63 177.68 117.36 182.8C101.1 187.93 86.87 188.92 85.65 185Z" id="bepX0gBWv"></path><path d="M85.65 185C84.42 181.1 96.62 173.77 112.91 168.65C129.18 163.53 143.39 162.53 144.63 166.44C145.86 170.34 133.63 177.68 117.36 182.8C101.1 187.93 86.87 188.92 85.65 185Z" id="ecnqxDaaR"></path><path d="M266.22 204.44C264.56 208.99 261.96 215.23 258.41 223.18C260.76 217.54 262.33 212.54 263.12 208.18C263.91 203.83 263.91 199.83 263.12 196.75C263.89 196.17 267.66 195.61 269.2 195.53C268.87 196.97 267.87 199.88 266.22 204.44Z" id="cjAYY6U6L"></path><path d="M266.22 204.44C264.56 208.99 261.96 215.23 258.41 223.18C260.76 217.54 262.33 212.54 263.12 208.18C263.91 203.83 263.91 199.83 263.12 196.75C263.89 196.17 267.66 195.61 269.2 195.53C268.87 196.97 267.87 199.88 266.22 204.44Z" id="bee7fmYqF"></path><path d="M281.64 205.7C278.19 205.23 274.92 205.13 271.82 205.37C270.58 205.47 269.36 205.63 268.18 205.84C266.43 206.17 264.75 206.6 263.14 207.17" id="f1bLhwRRqc"></path><path d="M281.64 205.7C278.19 205.23 274.92 205.13 271.82 205.37C270.58 205.47 269.36 205.63 268.18 205.84C266.43 206.17 264.75 206.6 263.14 207.17" id="f1MbGPnbmZ"></path><path d="M280.86 214.52C277.7 213.02 274.62 211.91 271.6 211.19C270.4 210.9 269.18 210.68 267.98 210.51C266.22 210.28 264.5 210.18 262.78 210.23" id="eWQ1i5PL"></path><path d="M280.86 214.52C277.7 213.02 274.62 211.91 271.6 211.19C270.4 210.9 269.18 210.68 267.98 210.51C266.22 210.28 264.5 210.18 262.78 210.23" id="a1AHzw799P"></path><path d="M197.25 208.31C193.92 207.24 190.72 206.55 187.64 206.25C186.39 206.13 185.17 206.07 183.96 206.07C182.19 206.07 180.45 206.2 178.77 206.49" id="dh5YzqBTb"></path><path d="M197.25 208.31C193.92 207.24 190.72 206.55 187.64 206.25C186.39 206.13 185.17 206.07 183.96 206.07C182.19 206.07 180.45 206.2 178.77 206.49" id="a1Jc8q8PH4"></path><path d="M197.25 211.04C193.77 210.95 190.49 211.2 187.46 211.78C186.22 212.02 185.02 212.31 183.87 212.66C182.17 213.16 180.55 213.78 179.01 214.52" id="b5QmLmbc1"></path><path d="M197.25 211.04C193.77 210.95 190.49 211.2 187.46 211.78C186.22 212.02 185.02 212.31 183.87 212.66C182.17 213.16 180.55 213.78 179.01 214.52" id="a15a9wReGG"></path><path d="M221.03 269.09C220.92 267.28 220.74 265.84 223.29 264.41C225.84 262.98 227.95 263.48 231.23 262.88C233.41 262.47 235.42 262.29 237.26 261.34C237.77 262.23 238.05 267.21 237.26 275.14C235.39 274.92 235.06 275.47 231.7 274.85C228.35 274.23 225.82 273.12 224.62 272.56C222.07 271.39 221.14 270.91 221.03 269.09Z" id="b1WQfbN9Q"></path><path d="M252.57 171.23C256.14 168.29 259.16 166.41 261.59 165.6C264.03 164.79 265.9 165.05 267.2 166.38C268.15 171.1 268.15 175.87 267.2 180.71C266.27 185.55 264.4 190.46 261.59 195.43C259.37 191.32 256.49 187.87 252.98 185.09C249.47 182.31 245.28 180.21 240.47 178.78C241.68 178.02 251.36 171.99 252.57 171.23Z" id="a28ejRhluu"></path><path d="M252.57 171.23C256.14 168.29 259.16 166.41 261.59 165.6C264.03 164.79 265.9 165.05 267.2 166.38C268.15 171.1 268.15 175.87 267.2 180.71C266.27 185.55 264.4 190.46 261.59 195.43C259.37 191.32 256.49 187.87 252.98 185.09C249.47 182.31 245.28 180.21 240.47 178.78C241.68 178.02 251.36 171.99 252.57 171.23Z" id="b1qp6h5u3"></path><path d="M256.6 185.87C255.19 186.12 255.09 185.58 255.24 184.33C255.39 183.07 257.96 181.52 257.18 180.84C256.4 180.16 253.4 181.86 252.14 181.61C251.31 181.45 251.31 180.87 252.14 179.87C259.54 173.77 264.17 169.95 266.02 168.44C266.57 167.98 267.41 168.23 267.62 168.91C268.43 171.57 268.51 174.77 267.87 178.52C267.39 181.3 266.5 184.64 265.01 188.33C264.59 189.38 264.3 190.43 263.77 191.5C263.58 191.89 263.27 192.54 262.84 193.43C262.43 194 262.15 194.44 262 194.78C260.84 191.36 260.41 189.63 260.28 188.01C260.08 185.58 261.54 183.9 260.86 183.36C260.18 182.83 258.01 185.63 256.6 185.87Z" id="eUFTqYfOa"></path><path d="M256.6 185.87C255.19 186.12 255.09 185.58 255.24 184.33C255.39 183.07 257.96 181.52 257.18 180.84C256.4 180.16 253.4 181.86 252.14 181.61C251.31 181.45 251.31 180.87 252.14 179.87C259.54 173.77 264.17 169.95 266.02 168.44C266.57 167.98 267.41 168.23 267.62 168.91C268.43 171.57 268.51 174.77 267.87 178.52C267.39 181.3 266.5 184.64 265.01 188.33C264.59 189.38 264.3 190.43 263.77 191.5C263.58 191.89 263.27 192.54 262.84 193.43C262.43 194 262.15 194.44 262 194.78C260.84 191.36 260.41 189.63 260.28 188.01C260.08 185.58 261.54 183.9 260.86 183.36C260.18 182.83 258.01 185.63 256.6 185.87Z" id="b23gUNpjEM"></path><path d="M229.71 210.37C230.08 210.92 230.31 211.27 230.4 211.41C231.23 212.66 232.84 213.1 234.2 212.47C234.23 212.45 234.33 212.41 234.47 212.34" id="d2LiUSJ3Kt"></path><path d="M229.71 210.37C230.08 210.92 230.31 211.27 230.4 211.41C231.23 212.66 232.84 213.1 234.2 212.47C234.23 212.45 234.33 212.41 234.47 212.34" id="b3UJbPNdyz"></path><path d="M229.71 210.37C229.34 210.92 229.11 211.27 229.02 211.41C228.19 212.66 226.58 213.1 225.22 212.47C225.19 212.45 225.09 212.41 224.95 212.34" id="c1DywFYCE9"></path><path d="M229.71 210.37C229.34 210.92 229.11 211.27 229.02 211.41C228.19 212.66 226.58 213.1 225.22 212.47C225.19 212.45 225.09 212.41 224.95 212.34" id="a1XIW2J9h"></path><path d="M229.71 206.72L232.01 206.72L230.86 208.64L229.71 210.55L228.57 208.64L227.41 206.72L229.71 206.72Z" id="g6JY2QqC"></path><path d="M229.71 206.72L232.01 206.72L230.86 208.64L229.71 210.55L228.57 208.64L227.41 206.72L229.71 206.72Z" id="b1DaEPjsWX"></path><path d="M211.08 239.81C208.83 237.58 206.84 235.31 205.12 233C203.41 230.7 201.97 228.36 200.8 225.98C201.04 226.65 202.21 229.99 204.32 235.99C208.37 238.28 210.63 239.55 211.08 239.81Z" id="c96puwSXH"></path><path d="M222.83 263.78C224.1 263.36 225.89 263.31 228.19 263.61C225.69 263.7 223.89 264.33 222.75 265.52C221.63 266.72 221.17 268.46 221.39 270.76C220.17 267.91 220.13 265.89 221.27 264.71C221.66 264.3 222.17 263.99 222.83 263.78Z" id="b5G9Zqr5O"></path><path d="M280.12 261.89L322.09 243.63" id="b2834GZVx0"></path><path d="M306.07 268.2C300 269.81 294.72 265.19 288.91 260.85C283.09 256.51 281.16 255.77 277.56 256.11C269 256.91 270.86 270.43 271.82 271.4C271.62 268.78 271.87 266.22 272.57 264.63C273.62 262.25 278.04 259.5 285.9 261.72C293.75 263.94 297.24 274.81 307.46 270.29C314.27 267.29 319.14 258.97 322.37 244.24C321.76 245.85 316.51 265.44 306.07 268.2Z" id="c3ul21PpD5"></path></defs><g><g><use xlink:href="#c3eZBomtlC" opacity="1" fill="#818181" fill-opacity="1"></use><g><use xlink:href="#c3eZBomtlC" opacity="1" fill-opacity="0" stroke="#000000" stroke-width="1" stroke-opacity="0"></use></g></g><g><use xlink:href="#c1Ub6QPG4t" opacity="1" fill="#000000" fill-opacity="0"></use><g><use xlink:href="#c1Ub6QPG4t" opacity="1" fill-opacity="0" stroke="#000000" stroke-width="1" stroke-opacity="0"></use></g></g><g><use xlink:href="#g1ptFvfbpm" opacity="1" fill="#eecec5" fill-opacity="1"></use><g><use xlink:href="#g1ptFvfbpm" opacity="1" fill-opacity="0" stroke="#000000" stroke-width="1" stroke-opacity="0"></use></g></g><g><use xlink:href="#choXvZslu" opacity="1" fill="#000000" fill-opacity="0"></use><g><use xlink:href="#choXvZslu" opacity="1" fill-opacity="0" stroke="#000000" stroke-width="1" stroke-opacity="0"></use></g></g><g><use xlink:href="#b6qVdSn0f2" opacity="1" fill="#818181" fill-opacity="1"></use><g><use xlink:href="#b6qVdSn0f2" opacity="1" fill-opacity="0" stroke="#000000" stroke-width="1" stroke-opacity="0"></use></g></g><g><use xlink:href="#a3mw1T0e6w" opacity="1" fill="#000000" fill-opacity="0"></use><g><use xlink:href="#a3mw1T0e6w" opacity="1" fill-opacity="0" stroke="#000000" stroke-width="1" stroke-opacity="0"></use></g></g><g><use xlink:href="#e7SDpG4uhW" opacity="1" fill="#333333" fill-opacity="1"></use><g><use xlink:href="#e7SDpG4uhW" opacity="1" fill-opacity="0" stroke="#000000" stroke-width="1" stroke-opacity="0"></use></g></g><g><use xlink:href="#c1xqawdUR" opacity="1" fill="#fffb08" fill-opacity="1"></use><g><use xlink:href="#c1xqawdUR" opacity="1" fill-opacity="0" stroke="#000000" stroke-width="1" stroke-opacity="0"></use></g></g><g><use xlink:href="#cUdyZTrbW" opacity="1" fill="#000000" fill-opacity="0"></use><g><use xlink:href="#cUdyZTrbW" opacity="1" fill-opacity="0" stroke="#000000" stroke-width="1" stroke-opacity="0"></use></g></g><g><use xlink:href="#aKDP2eWl" opacity="1" fill="#ffe900" fill-opacity="1"></use><g><use xlink:href="#aKDP2eWl" opacity="1" fill-opacity="0" stroke="#000000" stroke-width="1" stroke-opacity="0"></use></g></g><g><use xlink:href="#c3zc1TUIyo" opacity="1" fill="#000000" fill-opacity="0"></use><g><use xlink:href="#c3zc1TUIyo" opacity="1" fill-opacity="0" stroke="#000000" stroke-width="1" stroke-opacity="0"></use></g></g><g><use xlink:href="#e1FfuEbnjR" opacity="1" fill="#000000" fill-opacity="1"></use><g><use xlink:href="#e1FfuEbnjR" opacity="1" fill-opacity="0" stroke="#000000" stroke-width="1" stroke-opacity="0"></use></g></g><g><use xlink:href="#d3m6eFxGsw" opacity="1" fill="#000000" fill-opacity="0"></use><g><use xlink:href="#d3m6eFxGsw" opacity="1" fill-opacity="0" stroke="#000000" stroke-width="1" stroke-opacity="0"></use></g></g><g><use xlink:href="#b1d3CNHX9u" opacity="1" fill="#000000" fill-opacity="1"></use><g><use xlink:href="#b1d3CNHX9u" opacity="1" fill-opacity="0" stroke="#000000" stroke-width="1" stroke-opacity="0"></use></g></g><g><use xlink:href="#bhGLGL4VD" opacity="1" fill="#000000" fill-opacity="0"></use><g><use xlink:href="#bhGLGL4VD" opacity="1" fill-opacity="0" stroke="#000000" stroke-width="1" stroke-opacity="0"></use></g></g><g><use xlink:href="#b4x0sDJGQ0" opacity="1" fill="#333333" fill-opacity="1"></use><g><use xlink:href="#b4x0sDJGQ0" opacity="1" fill-opacity="0" stroke="#000000" stroke-width="1" stroke-opacity="0"></use></g></g><g><use xlink:href="#e3Et88wdj" opacity="1" fill="#333333" fill-opacity="1"></use><g><use xlink:href="#e3Et88wdj" opacity="1" fill-opacity="0" stroke="#000000" stroke-width="1" stroke-opacity="0"></use></g></g><g><use xlink:href="#a1geblJ7n4" opacity="1" fill="#000000" fill-opacity="0"></use><g><use xlink:href="#a1geblJ7n4" opacity="1" fill-opacity="0" stroke="#000000" stroke-width="1" stroke-opacity="0"></use></g></g><g><use xlink:href="#anJdtkQ8H" opacity="1" fill="#eecec5" fill-opacity="1"></use><g><use xlink:href="#anJdtkQ8H" opacity="1" fill-opacity="0" stroke="#000000" stroke-width="1" stroke-opacity="0"></use></g></g><g><use xlink:href="#h4X6zsJ9O" opacity="1" fill="#000000" fill-opacity="0"></use><g><use xlink:href="#h4X6zsJ9O" opacity="1" fill-opacity="0" stroke="#000000" stroke-width="1" stroke-opacity="0"></use></g></g><g><use xlink:href="#a56ZQvkaj" opacity="1" fill="#b67022" fill-opacity="1"></use><g><use xlink:href="#a56ZQvkaj" opacity="1" fill-opacity="0" stroke="#000000" stroke-width="1" stroke-opacity="0"></use></g></g><g><use xlink:href="#bepX0gBWv" opacity="1" fill="#211e1c" fill-opacity="1"></use><g><use xlink:href="#bepX0gBWv" opacity="1" fill-opacity="0" stroke="#000000" stroke-width="1" stroke-opacity="0"></use></g></g><g><use xlink:href="#ecnqxDaaR" opacity="1" fill="#000000" fill-opacity="0"></use><g><use xlink:href="#ecnqxDaaR" opacity="1" fill-opacity="0" stroke="#000000" stroke-width="1" stroke-opacity="0"></use></g></g><g><use xlink:href="#cjAYY6U6L" opacity="1" fill="#272323" fill-opacity="1"></use><g><use xlink:href="#cjAYY6U6L" opacity="1" fill-opacity="0" stroke="#000000" stroke-width="1" stroke-opacity="0"></use></g></g><g><use xlink:href="#bee7fmYqF" opacity="1" fill="#000000" fill-opacity="0"></use><g><use xlink:href="#bee7fmYqF" opacity="1" fill-opacity="0" stroke="#000000" stroke-width="1" stroke-opacity="0"></use></g></g><g><use xlink:href="#f1bLhwRRqc" opacity="1" fill="#000000" fill-opacity="0"></use><g><use xlink:href="#f1bLhwRRqc" opacity="1" fill-opacity="0" stroke="#000000" stroke-width="1" stroke-opacity="0"></use></g></g><g><use xlink:href="#f1MbGPnbmZ" opacity="1" fill="#000000" fill-opacity="0"></use><g><use xlink:href="#f1MbGPnbmZ" opacity="1" fill-opacity="0" stroke="#000000" stroke-width="1" stroke-opacity="1"></use></g></g><g><use xlink:href="#eWQ1i5PL" opacity="1" fill="#000000" fill-opacity="0"></use><g><use xlink:href="#eWQ1i5PL" opacity="1" fill-opacity="0" stroke="#000000" stroke-width="1" stroke-opacity="0"></use></g></g><g><use xlink:href="#a1AHzw799P" opacity="1" fill="#000000" fill-opacity="0"></use><g><use xlink:href="#a1AHzw799P" opacity="1" fill-opacity="0" stroke="#000000" stroke-width="1" stroke-opacity="1"></use></g></g><g><use xlink:href="#dh5YzqBTb" opacity="1" fill="#000000" fill-opacity="0"></use><g><use xlink:href="#dh5YzqBTb" opacity="1" fill-opacity="0" stroke="#000000" stroke-width="1" stroke-opacity="0"></use></g></g><g><use xlink:href="#a1Jc8q8PH4" opacity="1" fill="#000000" fill-opacity="0"></use><g><use xlink:href="#a1Jc8q8PH4" opacity="1" fill-opacity="0" stroke="#000000" stroke-width="1" stroke-opacity="1"></use></g></g><g><use xlink:href="#b5QmLmbc1" opacity="1" fill="#000000" fill-opacity="0"></use><g><use xlink:href="#b5QmLmbc1" opacity="1" fill-opacity="0" stroke="#000000" stroke-width="1" stroke-opacity="0"></use></g></g><g><use xlink:href="#a15a9wReGG" opacity="1" fill="#000000" fill-opacity="0"></use><g><use xlink:href="#a15a9wReGG" opacity="1" fill-opacity="0" stroke="#000000" stroke-width="1" stroke-opacity="1"></use></g></g><g><use xlink:href="#b1WQfbN9Q" opacity="1" fill="#333333" fill-opacity="1"></use><g><use xlink:href="#b1WQfbN9Q" opacity="1" fill-opacity="0" stroke="#000000" stroke-width="1" stroke-opacity="0"></use></g></g><g><use xlink:href="#a28ejRhluu" opacity="1" fill="#333333" fill-opacity="1"></use><g><use xlink:href="#a28ejRhluu" opacity="1" fill-opacity="0" stroke="#000000" stroke-width="1" stroke-opacity="0"></use></g></g><g><use xlink:href="#b1qp6h5u3" opacity="1" fill="#000000" fill-opacity="0"></use><g><use xlink:href="#b1qp6h5u3" opacity="1" fill-opacity="0" stroke="#000000" stroke-width="1" stroke-opacity="0"></use></g></g><g><use xlink:href="#eUFTqYfOa" opacity="1" fill="#eecec5" fill-opacity="1"></use><g><use xlink:href="#eUFTqYfOa" opacity="1" fill-opacity="0" stroke="#000000" stroke-width="1" stroke-opacity="0"></use></g></g><g><use xlink:href="#b23gUNpjEM" opacity="1" fill="#000000" fill-opacity="0"></use><g><use xlink:href="#b23gUNpjEM" opacity="1" fill-opacity="0" stroke="#000000" stroke-width="1" stroke-opacity="0"></use></g></g><g><use xlink:href="#d2LiUSJ3Kt" opacity="1" fill="#000000" fill-opacity="0"></use><g><use xlink:href="#d2LiUSJ3Kt" opacity="1" fill-opacity="0" stroke="#000000" stroke-width="1" stroke-opacity="0"></use></g></g><g><use xlink:href="#b3UJbPNdyz" opacity="1" fill="#000000" fill-opacity="0"></use><g><use xlink:href="#b3UJbPNdyz" opacity="1" fill-opacity="0" stroke="#000000" stroke-width="1" stroke-opacity="1"></use></g></g><g><use xlink:href="#c1DywFYCE9" opacity="1" fill="#000000" fill-opacity="0"></use><g><use xlink:href="#c1DywFYCE9" opacity="1" fill-opacity="0" stroke="#000000" stroke-width="1" stroke-opacity="0"></use></g></g><g><use xlink:href="#a1XIW2J9h" opacity="1" fill="#000000" fill-opacity="0"></use><g><use xlink:href="#a1XIW2J9h" opacity="1" fill-opacity="0" stroke="#000000" stroke-width="1" stroke-opacity="1"></use></g></g><g><use xlink:href="#g6JY2QqC" opacity="1" fill="#c1a7a0" fill-opacity="1"></use><g><use xlink:href="#g6JY2QqC" opacity="1" fill-opacity="0" stroke="#000000" stroke-width="1" stroke-opacity="0"></use></g></g><g><use xlink:href="#b1DaEPjsWX" opacity="1" fill="#000000" fill-opacity="0"></use><g><use xlink:href="#b1DaEPjsWX" opacity="1" fill-opacity="0" stroke="#000000" stroke-width="1" stroke-opacity="0"></use></g></g><g><use xlink:href="#c96puwSXH" opacity="1" fill="#262424" fill-opacity="1"></use><g><use xlink:href="#c96puwSXH" opacity="1" fill-opacity="0" stroke="#000000" stroke-width="1" stroke-opacity="0"></use></g></g><g><use xlink:href="#b5G9Zqr5O" opacity="1" fill="#272626" fill-opacity="1"></use><g><use xlink:href="#b5G9Zqr5O" opacity="1" fill-opacity="0" stroke="#000000" stroke-width="1" stroke-opacity="0"></use></g></g><g><use xlink:href="#b2834GZVx0" opacity="1" fill="#000000" fill-opacity="0"></use><g><use xlink:href="#b2834GZVx0" opacity="1" fill-opacity="0" stroke="#391717" stroke-width="9" stroke-opacity="0"></use></g></g><g><use xlink:href="#c3ul21PpD5" opacity="1" fill="#2f2c2c" fill-opacity="1"></use><g><use xlink:href="#c3ul21PpD5" opacity="1" fill-opacity="0" stroke="#000000" stroke-width="1" stroke-opacity="0"></use></g></g></g></svg>