<?xml version="1.0" encoding="UTF-8" standalone="no"?>
<!DOCTYPE svg PUBLIC "-//W3C//DTD SVG 1.1//EN" "http://www.w3.org/Graphics/SVG/1.1/DTD/svg11.dtd">
<svg version="1.1" xmlns="http://www.w3.org/2000/svg" xmlns:xlink="http://www.w3.org/1999/xlink" preserveAspectRatio="xMidYMid meet" viewBox="139.76446916560872 287.16141786737495 256.2427683221245 131.2477404686466" width="256.24" height="131.25"><defs><path d="M208 402.41L208 417.01C206.93 417.94 205.93 418.41 205 418.41C204.06 418.41 203.2 417.94 202.4 417.01L202.4 402.41L208 402.41Z" id="e1cW4g7a4M"></path><path d="M165 401.21C165 402.28 165.86 403.34 167.6 404.41L258.19 404.41L268.19 404.41L360.4 404.41L360.4 398.01L167.6 398.01C165.86 399.08 165 400.14 165 401.21Z" id="d58oHBgQUm"></path><path d="M340.1 402.41L340.1 417.01C339.03 417.94 338.03 418.41 337.1 418.41C336.16 418.41 335.3 417.94 334.5 417.01L334.5 402.41L340.1 402.41Z" id="j1ijQhDwJs"></path><path d="M255.38 383.39C259.31 386.31 261.92 390.42 265.2 392.29C271.65 395.96 276.86 397.61 280.83 397.24C279.81 395.13 279.81 393.48 280.83 392.29C282.37 390.51 283.81 390.77 286.98 390.1C289.09 389.66 291.26 389.66 293.5 390.1L299.6 402.34C301.68 402.34 303.49 401.99 305.03 401.26C306.58 400.54 308.04 399.65 309.43 398.58L333.17 398.58C333.57 394.91 334.6 392.47 336.26 391.24C337.93 390.02 340.22 390.02 343.15 391.24L353.83 399.43C355.2 400.03 356.67 400.43 358.25 400.62C359.82 400.82 361.51 400.82 363.31 400.62C370.27 400.81 375.8 397.91 379.91 391.91C384.02 385.91 385.33 376.58 383.83 363.91C382.22 355.54 379.36 348.27 375.25 342.1C371.14 335.94 365.78 330.87 359.17 326.91C351.16 323.02 344.16 320.69 338.16 319.91C332.16 319.13 327.16 319.48 323.17 320.96C319.51 314.52 314.93 309.58 309.43 306.14C303.93 302.69 297.51 301.17 290.17 301.58C282.42 301.56 275.74 303.08 270.13 306.14C264.52 309.19 259.98 313.78 256.5 319.91C256.48 320 256.46 320.06 256.46 320.08C254 329.72 254.55 339.88 258.03 349.19C258.65 350.86 260.21 355.02 262.7 361.67C260.43 361.25 259.01 360.99 258.44 360.88C254.62 360.17 250.71 359.96 246.83 360.24C246.83 360.24 246.83 360.24 246.83 360.24L242.17 375.24C247.2 377.87 251.6 380.59 255.38 383.39Z" id="aHd67tdQI"></path><path d="M315.1 328.88C315.1 340.27 303.22 349.51 288.6 349.51C273.97 349.51 262.1 340.27 262.1 328.88C262.1 317.5 273.97 308.26 288.6 308.26C303.22 308.26 315.1 317.5 315.1 328.88Z" id="c10MvHCnFw"></path><path d="M309.4 328.88C309.4 331.85 306.99 334.26 304.03 334.26C301.06 334.26 298.65 331.85 298.65 328.88C298.65 325.92 301.06 323.51 304.03 323.51C306.99 323.51 309.4 325.92 309.4 328.88Z" id="h2P2SkUOpg"></path><path d="M278.9 328.88C278.9 331.85 276.49 334.26 273.53 334.26C270.56 334.26 268.15 331.85 268.15 328.88C268.15 325.92 270.56 323.51 273.53 323.51C276.49 323.51 278.9 325.92 278.9 328.88Z" id="a1rX4U0Re7"></path><path d="M277.84 328.88C277.84 331.26 275.91 333.2 273.53 333.2C271.15 333.2 269.21 331.26 269.21 328.88C269.21 326.5 271.15 324.57 273.53 324.57C275.91 324.57 277.84 326.5 277.84 328.88Z" id="e1RfQ4WEGU"></path><path d="M308.34 328.88C308.34 331.26 306.41 333.2 304.03 333.2C301.65 333.2 299.71 331.26 299.71 328.88C299.71 326.5 301.65 324.57 304.03 324.57C306.41 324.57 308.34 326.5 308.34 328.88Z" id="f2oRxYxR4"></path><path d="M288.6 334.99C288.98 335.56 289.22 335.92 289.31 336.06C290.17 337.35 291.83 337.81 293.23 337.16C293.26 337.14 293.36 337.1 293.51 337.02" id="bNYVhxkDJ"></path><path d="M288.6 334.99C288.21 335.56 287.97 335.92 287.88 336.06C287.02 337.35 285.36 337.81 283.96 337.16C283.93 337.14 283.83 337.1 283.68 337.02" id="c1Mpr8cefb"></path><path d="M287.41 333.2L286.22 331.22L288.6 331.22L290.97 331.22L289.78 333.2L288.6 335.18L287.41 333.2Z" id="b5hd479Nz"></path><path d="M381.84 387.19C378.65 393.98 378.63 394.61 372.01 397.53C367.59 399.47 362.04 399.91 355.34 398.86C352.73 397.93 350.33 396.7 348.13 395.18C344.84 392.88 345.06 391.04 342.51 390.1C339.96 389.17 339.67 389.6 337.93 390.1C336.78 390.44 335.88 390.97 335.23 391.69C333.87 393 332.96 394.41 332.51 395.91C332.05 397.41 332.05 399 332.51 400.69C334.21 404.09 336.37 406.94 338.98 409.25C341.59 411.55 344.65 413.31 348.17 414.53C353.42 416.44 358.53 417.36 363.5 417.28C368.48 417.19 373.31 416.11 378.01 414.03C383.38 411.87 387.57 408.64 390.57 404.34C393.57 400.03 395.38 394.65 396.01 388.19C395.9 383.87 394.87 380.22 392.93 377.24C390.98 374.27 388.15 371.98 384.43 370.36C384.83 377.05 383.97 382.66 381.84 387.19Z" id="a61k6XCwMw"></path><path d="M290.76 402.03C286.68 401.4 284.83 400.73 282.79 399.52C280.75 398.31 280.01 398.07 279.92 396.19C279.83 394.32 280.38 392.84 282.42 391.36C284.46 389.88 285.46 390.9 288.09 390.28C289.84 389.86 291.45 389.17 292.92 388.19L299.09 402.03C296.25 402.44 293.47 402.44 290.76 402.03Z" id="aiGQPlfkq"></path><path d="M238.25 373.69C236.35 373.25 234.27 373.63 231.99 374.84C229.15 372.75 228.24 370.77 229.25 368.92C230.76 366.15 232.16 364.44 236.86 362.58C239.99 361.34 243.71 360.51 248.03 360.08L243.74 375.41C241.97 374.71 240.14 374.14 238.25 373.69Z" id="b3hlyJHI4D"></path><path d="M265.35 309.93C268.98 307.06 273.29 304.89 278.26 303.41L265.77 295.62C262.08 292.58 258.97 290.64 256.46 289.81C253.94 288.97 252 289.24 250.66 290.61C249.69 295.48 249.69 300.41 250.66 305.41C251.62 310.41 253.56 315.48 256.46 320.61C258.75 316.36 261.72 312.8 265.35 309.93Z" id="a3MUbZnlw"></path><path d="M257.77 312.8C257.97 310.3 256.47 308.55 257.17 308C257.87 307.45 260.12 310.35 261.57 310.6C263.02 310.85 263.12 310.3 262.97 309C262.82 307.7 260.17 306.1 260.97 305.4C261.77 304.7 264.87 306.45 266.17 306.2C267.03 306.03 267.03 305.43 266.17 304.4C258.53 298.1 253.75 294.16 251.84 292.59C251.27 292.12 250.41 292.38 250.19 293.08C249.36 295.83 249.27 299.14 249.93 303C250.7 307.47 252.64 313.34 255.77 320.61C256.97 317.07 257.63 314.47 257.77 312.8Z" id="a2qJZuXRE"></path><path d="M312.9 308.67C309.26 305.8 304.96 303.63 299.99 302.15L312.47 294.36C316.17 291.32 319.27 289.39 321.79 288.55C324.31 287.72 326.24 287.98 327.59 289.35C328.56 294.22 328.56 299.15 327.59 304.15C326.62 309.15 324.69 314.22 321.79 319.35C319.49 315.1 316.53 311.54 312.9 308.67Z" id="dEdxONWXA"></path><path d="M320.48 311.54C320.28 309.04 321.78 307.29 321.08 306.74C320.38 306.19 318.13 309.09 316.68 309.34C315.23 309.59 315.13 309.04 315.28 307.74C315.43 306.44 318.08 304.84 317.28 304.14C316.48 303.44 313.38 305.19 312.08 304.94C311.21 304.77 311.21 304.17 312.08 303.14C319.72 296.84 324.5 292.9 326.41 291.33C326.98 290.86 327.84 291.12 328.05 291.82C328.89 294.58 328.98 297.88 328.32 301.74C327.55 306.21 325.6 312.08 322.48 319.35C321.28 315.81 320.61 313.21 320.48 311.54Z" id="f1NWonnEKJ"></path><path d="M155.09 367.77C149.06 354.97 149.39 339.97 156.09 322.77C154 320.58 151.76 318.49 149.36 316.49C146.96 314.49 144 312.25 140.49 309.77C148.8 309.81 155.63 309.31 161 308.28C166.37 307.25 170.67 306.21 173.89 305.17C180.1 302.98 185.8 300.51 191 297.74C196.2 294.98 199.48 292.18 200.83 289.37L201.09 298.39L198.89 310.59C214.9 317.22 224.88 327.02 228.85 340.02C232.82 353.02 230.76 369.2 222.69 388.57C222.03 389.93 219.89 391.53 216.29 393.37C210.89 396.12 207.44 397.22 201.09 398.77C196.86 399.8 193.93 400.07 192.29 399.57C173.53 391.17 161.13 380.57 155.09 367.77Z" id="c4daNeuPQ1"></path><path d="M200.75 289.63C202.02 293.66 189.4 301.23 172.6 306.52C155.8 311.82 141.12 312.84 139.85 308.8C138.58 304.77 151.19 297.2 168 291.91C184.8 286.62 199.47 285.59 200.75 289.63Z" id="e1v7qClTJB"></path><path d="M325.63 320C326.53 319.8 327.78 319.65 329.37 319.57C329.03 321.06 328 324.16 326.29 328.86C324.57 333.56 321.89 340.01 318.23 348.21C320.66 342.39 322.28 337.23 323.09 332.73C323.9 328.23 323.9 324.39 323.09 321.21C323.88 320.61 324.72 320.2 325.63 320Z" id="a190kKR3PN"></path><path d="M342.22 330.17C338.65 329.69 335.27 329.58 332.08 329.83C330.79 329.93 329.53 330.1 328.31 330.32C326.51 330.65 324.77 331.1 323.11 331.69" id="anUDWKtVf"></path><path d="M341.4 339.27C338.15 337.72 334.96 336.58 331.85 335.84C330.6 335.54 329.35 335.31 328.11 335.14C326.3 334.9 324.51 334.8 322.74 334.85" id="aSouUfRyu"></path><path d="M255.08 332.86C251.65 331.76 248.34 331.05 245.16 330.74C243.87 330.61 242.61 330.55 241.36 330.55C239.53 330.55 237.74 330.69 236 330.98" id="bVoGumEYw"></path><path d="M255.08 335.68C251.48 335.59 248.1 335.85 244.97 336.45C243.69 336.69 242.46 336.99 241.27 337.35C239.51 337.87 237.84 338.51 236.25 339.27" id="j1shKtafMh"></path></defs><g><g><g><use xlink:href="#e1cW4g7a4M" opacity="1" fill="#818181" fill-opacity="1"></use></g><g><use xlink:href="#d58oHBgQUm" opacity="1" fill="#eecec5" fill-opacity="1"></use></g><g><use xlink:href="#j1ijQhDwJs" opacity="1" fill="#818181" fill-opacity="1"></use></g></g><g><g><use xlink:href="#aHd67tdQI" opacity="1" fill="#efe9e2" fill-opacity="1"></use></g><g><g><use xlink:href="#c10MvHCnFw" opacity="1" fill="#333333" fill-opacity="1"></use></g><g><use xlink:href="#h2P2SkUOpg" opacity="1" fill="#dad88a" fill-opacity="1"></use></g><g><use xlink:href="#a1rX4U0Re7" opacity="1" fill="#dad88a" fill-opacity="1"></use></g><g><use xlink:href="#e1RfQ4WEGU" opacity="1" fill="#000000" fill-opacity="1"></use></g><g><use xlink:href="#f2oRxYxR4" opacity="1" fill="#000000" fill-opacity="1"></use></g><g><g><use xlink:href="#bNYVhxkDJ" opacity="1" fill-opacity="0" stroke="#000000" stroke-width="1" stroke-opacity="1"></use></g></g><g><g><use xlink:href="#c1Mpr8cefb" opacity="1" fill-opacity="0" stroke="#000000" stroke-width="1" stroke-opacity="1"></use></g></g><g><use xlink:href="#b5hd479Nz" opacity="1" fill="#c1a7a0" fill-opacity="1"></use></g></g><g><use xlink:href="#a61k6XCwMw" opacity="1" fill="#333333" fill-opacity="1"></use></g><g><use xlink:href="#aiGQPlfkq" opacity="1" fill="#333333" fill-opacity="1"></use></g><g><use xlink:href="#b3hlyJHI4D" opacity="1" fill="#333333" fill-opacity="1"></use></g><g><g><use xlink:href="#a3MUbZnlw" opacity="1" fill="#333333" fill-opacity="1"></use></g><g><use xlink:href="#a2qJZuXRE" opacity="1" fill="#eecec5" fill-opacity="1"></use></g></g><g><g><use xlink:href="#dEdxONWXA" opacity="1" fill="#333333" fill-opacity="1"></use></g><g><use xlink:href="#f1NWonnEKJ" opacity="1" fill="#eecec5" fill-opacity="1"></use></g></g></g><g><g><use xlink:href="#c4daNeuPQ1" opacity="1" fill="#d6b49a" fill-opacity="1"></use></g><g><use xlink:href="#e1v7qClTJB" opacity="1" fill="#211e1c" fill-opacity="1"></use></g></g><g><use xlink:href="#a190kKR3PN" opacity="1" fill="#c6c2bd" fill-opacity="1"></use></g><g><g><use xlink:href="#anUDWKtVf" opacity="1" fill-opacity="0" stroke="#000000" stroke-width="1" stroke-opacity="1"></use></g></g><g><g><use xlink:href="#aSouUfRyu" opacity="1" fill-opacity="0" stroke="#000000" stroke-width="1" stroke-opacity="1"></use></g></g><g><g><use xlink:href="#bVoGumEYw" opacity="1" fill-opacity="0" stroke="#000000" stroke-width="1" stroke-opacity="1"></use></g></g><g><g><use xlink:href="#j1shKtafMh" opacity="1" fill-opacity="0" stroke="#000000" stroke-width="1" stroke-opacity="1"></use></g></g></g></svg>