<?xml version="1.0" encoding="UTF-8" standalone="no"?>
<!DOCTYPE svg PUBLIC "-//W3C//DTD SVG 1.1//EN" "http://www.w3.org/Graphics/SVG/1.1/DTD/svg11.dtd">
<svg version="1.1" xmlns="http://www.w3.org/2000/svg" xmlns:xlink="http://www.w3.org/1999/xlink" preserveAspectRatio="xMidYMid meet" viewBox="1.4868268554965605 -0.026690048180525672 250.45930473965305 131.11899436904446" width="246.46" height="127.12"><defs><path d="M65.67 128.09C64.75 128.09 63.93 127.64 63.15 126.73C63.15 125.79 63.15 121.08 63.15 112.6C63.69 112.6 68.03 112.6 68.58 112.6C68.58 121.08 68.58 125.79 68.58 126.73C67.54 127.64 66.57 128.09 65.67 128.09Z" id="a1s5RrPcle"></path><path d="M65.67 128.09C64.75 128.09 63.93 127.64 63.15 126.73C63.15 125.79 63.15 121.08 63.15 112.6C63.69 112.6 68.03 112.6 68.58 112.6C68.58 121.08 68.58 125.79 68.58 126.73C67.54 127.64 66.57 128.09 65.67 128.09Z" id="crZ6yTRk"></path><path d="M117.18 114.53C117.83 114.53 121.06 114.53 126.87 114.53L216.18 114.53C216.18 110.81 216.18 108.74 216.18 108.33C104.14 108.33 41.89 108.33 29.44 108.33C27.76 109.36 26.93 110.39 26.93 111.43C26.93 112.47 27.76 113.49 29.44 114.53C35.29 114.53 64.54 114.53 117.18 114.53Z" id="a1OAsDIVLq"></path><path d="M117.18 114.53C117.83 114.53 121.06 114.53 126.87 114.53L216.18 114.53C216.18 110.81 216.18 108.74 216.18 108.33C104.14 108.33 41.89 108.33 29.44 108.33C27.76 109.36 26.93 110.39 26.93 111.43C26.93 112.47 27.76 113.49 29.44 114.53C35.29 114.53 64.54 114.53 117.18 114.53Z" id="aAr4qvRuN"></path><path d="M193.61 128.09C192.71 128.09 191.87 127.64 191.1 126.73C191.1 125.79 191.1 121.08 191.1 112.6C191.64 112.6 195.98 112.6 196.52 112.6C196.52 121.08 196.52 125.79 196.52 126.73C195.48 127.64 194.51 128.09 193.61 128.09Z" id="d3EMRuZ8mB"></path><path d="M193.61 128.09C192.71 128.09 191.87 127.64 191.1 126.73C191.1 125.79 191.1 121.08 191.1 112.6C191.64 112.6 195.98 112.6 196.52 112.6C196.52 121.08 196.52 125.79 196.52 126.73C195.48 127.64 194.51 128.09 193.61 128.09Z" id="a1egZziftQ"></path><path d="M139.11 107.59C138.12 105.54 138.12 103.94 139.11 102.79C140.61 101.07 141.99 101.32 145.07 100.67C147.11 100.24 148.06 100.24 150.23 100.67C150.83 101.85 149.91 110.86 150.5 112.04C152.51 112.04 156.47 112.22 160.55 111.43C164.63 110.64 165.47 109.92 166.82 108.88C169.12 108.88 187.5 108.88 189.8 108.88C190.19 105.33 191.19 102.97 192.79 101.78C194.41 100.59 196.64 100.59 199.47 101.78C200.51 102.57 208.79 108.91 209.81 109.7C211.14 110.29 212.57 110.67 214.09 110.86C215.62 111.05 217.26 111.05 218.99 110.86C225.74 111.04 231.09 108.24 235.07 102.43C239.05 96.61 240.32 87.58 238.88 75.3C237.31 67.2 234.54 60.16 230.56 54.18C226.58 48.21 221.39 43.3 214.99 39.47C207.23 35.7 200.45 33.44 194.64 32.69C188.82 31.93 183.98 32.27 180.12 33.7C176.58 27.47 172.14 22.68 166.82 19.35C161.49 16.01 155.27 14.54 148.16 14.94C140.66 14.92 134.18 16.38 128.75 19.35C123.32 22.3 118.92 26.75 115.55 32.69C115.53 32.77 115.51 32.83 115.51 32.85C113.13 42.19 113.66 52.03 117.03 61.05C117.63 62.66 119.14 66.7 121.55 73.13C119.36 72.72 117.98 72.47 117.43 72.37C113.73 71.68 109.94 71.48 106.18 71.75C106.18 71.75 106.18 71.75 106.18 71.75C103.47 80.47 101.97 85.31 101.67 86.28C106.54 88.82 110.8 91.46 114.47 94.17C118.27 97 120.8 100.98 123.98 102.79C130.22 106.35 135.27 107.95 139.11 107.59Z" id="b2o8GxT4DQ"></path><path d="M156.38 41.38C156.38 38.51 158.7 36.18 161.59 36.18C164.45 36.18 166.79 38.51 166.79 41.38C166.79 44.25 164.45 46.59 161.59 46.59C158.7 46.59 156.38 44.25 156.38 41.38Z" id="e2PCX5dKI"></path><path d="M156.38 41.38C156.38 38.51 158.7 36.18 161.59 36.18C164.45 36.18 166.79 38.51 166.79 41.38C166.79 44.25 164.45 46.59 161.59 46.59C158.7 46.59 156.38 44.25 156.38 41.38Z" id="bK6BdQMob"></path><path d="M126.83 41.38C126.83 38.51 129.17 36.18 132.04 36.18C134.91 36.18 137.24 38.51 137.24 41.38C137.24 44.25 134.91 46.59 132.04 46.59C129.17 46.59 126.83 44.25 126.83 41.38Z" id="g2sHMUrBb"></path><path d="M126.83 41.38C126.83 38.51 129.17 36.18 132.04 36.18C134.91 36.18 137.24 38.51 137.24 41.38C137.24 44.25 134.91 46.59 132.04 46.59C129.17 46.59 126.83 44.25 126.83 41.38Z" id="dmJRtXmxR"></path><path d="M127.86 41.38C127.86 39.07 129.74 37.2 132.04 37.2C134.35 37.2 136.22 39.07 136.22 41.38C136.22 43.68 134.35 45.56 132.04 45.56C129.74 45.56 127.86 43.68 127.86 41.38Z" id="a1GL4nfF9u"></path><path d="M127.86 41.38C127.86 39.07 129.74 37.2 132.04 37.2C134.35 37.2 136.22 39.07 136.22 41.38C136.22 43.68 134.35 45.56 132.04 45.56C129.74 45.56 127.86 43.68 127.86 41.38Z" id="eyP7V2PUl"></path><path d="M157.39 41.38C157.39 39.07 159.28 37.2 161.59 37.2C163.89 37.2 165.76 39.07 165.76 41.38C165.76 43.68 163.89 45.56 161.59 45.56C159.28 45.56 157.39 43.68 157.39 41.38Z" id="b10MUBrGp5"></path><path d="M157.39 41.38C157.39 39.07 159.28 37.2 161.59 37.2C163.89 37.2 165.76 39.07 165.76 41.38C165.76 43.68 163.89 45.56 161.59 45.56C159.28 45.56 157.39 43.68 157.39 41.38Z" id="b2soypo7b"></path><path d="M209.55 106.47C207.03 105.57 204.7 104.19 202.57 102.72C199.38 100.5 199.59 98.9 197.13 97.98C194.65 97.08 194.37 97.5 192.69 97.98C191.58 98.31 190.7 98.83 190.07 99.53C188.75 100.79 187.88 102.16 187.44 103.61C187 105.07 187 106.6 187.44 108.24C189.08 111.53 191.18 114.3 193.71 116.53C196.24 118.76 199.2 120.47 202.61 121.64C207.7 123.5 212.64 124.39 217.46 124.31C222.28 124.22 226.96 123.18 231.51 121.16C236.71 119.07 240.77 115.94 243.68 111.77C246.58 107.6 248.33 102.39 248.95 96.13C248.84 91.95 247.84 88.42 245.96 85.53C244.07 82.65 241.15 80.43 237.54 78.87C237.93 85.34 237.28 90.77 235.22 95.17C232.13 101.74 232.11 102.35 225.7 105.18C221.42 107.06 216.04 107.48 209.55 106.47Z" id="b22Lc6bqI"></path><path d="M124.53 9.16C120.96 6.21 117.94 4.34 115.51 3.54C113.07 2.72 111.19 2.98 109.9 4.31C108.95 9.03 108.95 13.8 109.9 18.64C110.82 23.49 112.7 28.4 115.51 33.37C117.73 29.25 120.61 25.81 124.12 23.02C127.63 20.25 131.81 18.14 136.62 16.7C135.42 15.96 125.73 9.92 124.53 9.16Z" id="cDHcyGuL8"></path><path d="M124.53 9.16C120.96 6.21 117.94 4.34 115.51 3.54C113.07 2.72 111.19 2.98 109.9 4.31C108.95 9.03 108.95 13.8 109.9 18.64C110.82 23.49 112.7 28.4 115.51 33.37C117.73 29.25 120.61 25.81 124.12 23.02C127.63 20.25 131.81 18.14 136.62 16.7C135.42 15.96 125.73 9.92 124.53 9.16Z" id="h2mfKIw2n"></path><path d="M120.46 23.67C121.86 23.91 121.96 23.38 121.81 22.12C121.67 20.87 119.1 19.31 119.88 18.63C120.66 17.96 123.65 19.65 124.92 19.41C125.75 19.25 125.75 18.66 124.92 17.66C117.51 11.56 112.88 7.75 111.03 6.22C110.49 5.77 109.65 6.02 109.44 6.7C108.63 9.37 108.55 12.57 109.19 16.31C109.66 19.1 110.55 22.44 112.05 26.13C112.47 27.16 112.76 28.21 113.29 29.3C113.48 29.69 113.79 30.34 114.21 31.23C114.62 31.78 114.9 32.23 115.06 32.58C116.21 29.15 116.64 27.42 116.77 25.81C116.97 23.38 115.52 21.68 116.19 21.15C116.87 20.62 119.06 23.43 120.46 23.67Z" id="aj0eVZRmP"></path><path d="M120.46 23.67C121.86 23.91 121.96 23.38 121.81 22.12C121.67 20.87 119.1 19.31 119.88 18.63C120.66 17.96 123.65 19.65 124.92 19.41C125.75 19.25 125.75 18.66 124.92 17.66C117.51 11.56 112.88 7.75 111.03 6.22C110.49 5.77 109.65 6.02 109.44 6.7C108.63 9.37 108.55 12.57 109.19 16.31C109.66 19.1 110.55 22.44 112.05 26.13C112.47 27.16 112.76 28.21 113.29 29.3C113.48 29.69 113.79 30.34 114.21 31.23C114.62 31.78 114.9 32.23 115.06 32.58C116.21 29.15 116.64 27.42 116.77 25.81C116.97 23.38 115.52 21.68 116.19 21.15C116.87 20.62 119.06 23.43 120.46 23.67Z" id="c2zJou4EEW"></path><path d="M11.78 29.38C9.45 27.44 6.59 25.27 3.18 22.87C11.24 22.9 17.86 22.42 23.06 21.42C28.26 20.43 32.42 19.42 35.54 18.41C41.55 16.29 47.07 13.9 52.11 11.21C57.15 8.54 60.32 5.83 61.63 3.11C61.65 3.69 61.73 6.6 61.88 11.84C60.6 18.94 59.89 22.88 59.75 23.66C75.25 30.09 84.93 39.58 88.77 52.16C92.61 64.76 90.61 80.43 82.8 99.19C82.16 100.5 80.09 102.06 76.6 103.83C71.37 106.5 68.03 107.57 61.88 109.06C57.79 110.06 54.94 110.32 53.36 109.84C35.19 101.71 23.18 91.44 17.33 79.04C11.49 66.65 11.81 52.11 18.3 35.46C16.27 33.34 14.1 31.32 11.78 29.38Z" id="a2j3YssQE7"></path><path d="M2.57 21.92C1.34 18.02 13.55 10.7 29.83 5.57C46.1 0.45 60.31 -0.55 61.55 3.36C62.78 7.26 50.56 14.6 34.28 19.72C18.02 24.86 3.8 25.84 2.57 21.92Z" id="d3BGvUE83"></path><path d="M2.57 21.92C1.34 18.02 13.55 10.7 29.83 5.57C46.1 0.45 60.31 -0.55 61.55 3.36C62.78 7.26 50.56 14.6 34.28 19.72C18.02 24.86 3.8 25.84 2.57 21.92Z" id="fISDwkesP"></path><path d="M183.14 41.36C181.48 45.91 178.88 52.15 175.34 60.1C177.68 54.46 179.26 49.46 180.04 45.11C180.83 40.75 180.83 36.75 180.04 33.68C180.81 33.09 184.58 32.53 186.13 32.45C185.8 33.89 184.8 36.8 183.14 41.36Z" id="io5otIK1j"></path><path d="M183.14 41.36C181.48 45.91 178.88 52.15 175.34 60.1C177.68 54.46 179.26 49.46 180.04 45.11C180.83 40.75 180.83 36.75 180.04 33.68C180.81 33.09 184.58 32.53 186.13 32.45C185.8 33.89 184.8 36.8 183.14 41.36Z" id="n1jNow4L7w"></path><path d="M198.57 42.62C195.11 42.16 191.84 42.05 188.75 42.29C187.5 42.39 186.28 42.55 185.1 42.77C183.35 43.09 181.67 43.52 180.06 44.1" id="e1bHZdPCAl"></path><path d="M198.57 42.62C195.11 42.16 191.84 42.05 188.75 42.29C187.5 42.39 186.28 42.55 185.1 42.77C183.35 43.09 181.67 43.52 180.06 44.1" id="b9WduBKn7"></path><path d="M197.78 51.44C194.63 49.94 191.54 48.83 188.52 48.11C187.32 47.82 186.11 47.6 184.9 47.44C183.15 47.2 181.42 47.11 179.7 47.15" id="bXqGdALQX"></path><path d="M197.78 51.44C194.63 49.94 191.54 48.83 188.52 48.11C187.32 47.82 186.11 47.6 184.9 47.44C183.15 47.2 181.42 47.11 179.7 47.15" id="i5nZHHv8mm"></path><path d="M114.17 45.23C110.85 44.17 107.64 43.48 104.57 43.18C103.32 43.05 102.09 42.99 100.88 42.99C99.11 42.99 97.38 43.13 95.69 43.41" id="d7jSOI3pG"></path><path d="M114.17 45.23C110.85 44.17 107.64 43.48 104.57 43.18C103.32 43.05 102.09 42.99 100.88 42.99C99.11 42.99 97.38 43.13 95.69 43.41" id="frVSAuqgt"></path><path d="M114.17 47.96C110.69 47.87 107.41 48.12 104.38 48.71C103.14 48.94 101.95 49.23 100.79 49.58C99.09 50.08 97.47 50.71 95.93 51.44" id="a1TmS0Lu1R"></path><path d="M114.17 47.96C110.69 47.87 107.41 48.12 104.38 48.71C103.14 48.94 101.95 49.23 100.79 49.58C99.09 50.08 97.47 50.71 95.93 51.44" id="d1W7c7152p"></path><path d="M138.23 106.57C138.14 104.75 138.01 103.32 139.99 101.89C141.97 100.46 143.6 100.96 146.15 100.36C147.84 99.95 149.4 99.77 150.83 98.82C151.22 99.71 151.17 104.18 150.67 112.23C145.55 111.38 142.32 110.58 141.01 109.79C139.04 108.62 138.32 108.38 138.23 106.57Z" id="a4tM2xIlaE"></path><path d="M169.49 8.16C173.07 5.21 176.08 3.33 178.51 2.53C180.95 1.71 182.83 1.97 184.13 3.3C185.07 8.02 185.07 12.79 184.13 17.64C183.2 22.48 181.32 27.39 178.51 32.36C176.3 28.24 173.42 24.8 169.9 22.01C166.39 19.24 162.21 17.13 157.39 15.7C158.61 14.95 168.28 8.91 169.49 8.16Z" id="a5AmvR9uD"></path><path d="M169.49 8.16C173.07 5.21 176.08 3.33 178.51 2.53C180.95 1.71 182.83 1.97 184.13 3.3C185.07 8.02 185.07 12.79 184.13 17.64C183.2 22.48 181.32 27.39 178.51 32.36C176.3 28.24 173.42 24.8 169.9 22.01C166.39 19.24 162.21 17.13 157.39 15.7C158.61 14.95 168.28 8.91 169.49 8.16Z" id="c2ungMiGX"></path><path d="M173.52 22.8C172.11 23.04 172.02 22.51 172.16 21.25C172.31 19.99 174.88 18.44 174.1 17.76C173.33 17.08 170.32 18.78 169.07 18.54C168.23 18.37 168.23 17.79 169.07 16.79C176.46 10.7 181.09 6.87 182.94 5.36C183.5 4.9 184.33 5.16 184.55 5.84C185.35 8.49 185.44 11.7 184.8 15.44C184.31 18.23 183.42 21.57 181.94 25.25C181.51 26.3 181.23 27.35 180.69 28.43C180.5 28.81 180.19 29.46 179.76 30.36C179.35 30.92 179.07 31.37 178.93 31.71C177.76 28.28 177.34 26.55 177.2 24.93C177.01 22.51 178.46 20.82 177.78 20.28C177.1 19.75 174.93 22.56 173.52 22.8Z" id="h5jycVfduD"></path><path d="M173.52 22.8C172.11 23.04 172.02 22.51 172.16 21.25C172.31 19.99 174.88 18.44 174.1 17.76C173.33 17.08 170.32 18.78 169.07 18.54C168.23 18.37 168.23 17.79 169.07 16.79C176.46 10.7 181.09 6.87 182.94 5.36C183.5 4.9 184.33 5.16 184.55 5.84C185.35 8.49 185.44 11.7 184.8 15.44C184.31 18.23 183.42 21.57 181.94 25.25C181.51 26.3 181.23 27.35 180.69 28.43C180.5 28.81 180.19 29.46 179.76 30.36C179.35 30.92 179.07 31.37 178.93 31.71C177.76 28.28 177.34 26.55 177.2 24.93C177.01 22.51 178.46 20.82 177.78 20.28C177.1 19.75 174.93 22.56 173.52 22.8Z" id="m2wRLegF1s"></path><path d="M152.02 41.29C153.12 44.23 153.23 44.16 154.39 46.27C155.53 48.4 155.43 48.42 157.78 50.18C159.34 51.36 161.23 52.52 163.44 53.66C164.66 54.23 174.43 58.83 175.65 59.4C176.88 60 178.24 60.76 179.7 61.66C181.17 62.56 182.76 63.62 184.47 64.81C185.76 65.7 186.81 66.77 187.62 68.06C188.83 69.97 189.01 70.28 189.32 72.5C189.62 74.72 189.56 74.89 188.83 76.94C188.35 78.32 187.53 79.58 186.41 80.75C185.37 81.62 184.02 81.82 182.36 81.31C180.7 80.82 178.73 79.63 176.46 77.76C175.16 76.87 173.71 76.27 172.1 75.97C170.48 75.68 168.71 75.68 166.79 75.97C166.32 76.15 162.53 77.58 162.06 77.76C160.94 78.36 160.18 79.54 159.8 81.31C159.24 83.96 160.92 85.49 159.8 88.35C158.69 91.2 158.65 90.94 155.36 92.71C153.16 93.9 150.66 94.82 147.86 95.47C147.15 95.87 146.3 96.52 145.32 97.41C143.87 98.74 147.66 100.07 144.71 100.63C141.75 101.2 139.72 101.49 138.81 103.15C138.2 104.26 138.07 105.74 138.41 107.62C137.02 107.83 135.08 107.54 132.61 106.74C128.91 105.55 125.83 103.94 123.58 102.66C122.07 101.81 121.25 101.11 121.11 100.56C121.28 97.35 121.28 94.85 121.11 93.04C120.95 91.23 120.63 90.13 120.14 89.72C119.39 88.7 118.23 87.86 116.67 87.22C114.32 86.25 113.67 85.78 110.76 85.84C108.83 85.88 106.85 86.6 104.81 88.01C102.19 86.59 99.77 85.65 97.58 85.19C94.29 84.5 93.85 86.12 91.76 85.19C89.68 84.26 88.53 83.69 89.26 80.99C89.98 78.29 90.04 77.4 94.68 75.05C97.78 73.48 102 72.34 107.34 71.6C110.12 71.51 112.69 71.6 115.06 71.87C117.43 72.15 119.49 72.5 121.25 72.93C120.94 72.07 119.42 67.8 116.67 60.1C117.76 60.1 118.37 60.1 118.49 60.1C120.43 60.39 122.48 60.26 124.63 59.72C127.87 58.91 128.54 58.8 131.43 56.84C134.32 54.88 134.46 54.71 136.22 51.88C137.98 49.05 137.6 50.19 138.54 45.56C139.49 40.93 138.97 37.89 140.81 33.37C142.64 28.84 143.98 27.74 146.63 27.46C149.28 27.17 148.36 30.97 150 34.53C151.63 38.08 150.92 38.36 152.02 41.29Z" id="a2cfBAoB3D"></path><path d="M146.63 47.29C147 47.84 147.23 48.19 147.32 48.33C148.16 49.58 149.77 50.03 151.13 49.4C151.16 49.38 151.25 49.34 151.4 49.26" id="a4NiVxC332"></path><path d="M146.63 47.29C147 47.84 147.23 48.19 147.32 48.33C148.16 49.58 149.77 50.03 151.13 49.4C151.16 49.38 151.25 49.34 151.4 49.26" id="a4LAYIZMnx"></path><path d="M146.63 47.29C146.26 47.84 146.03 48.19 145.94 48.33C145.11 49.58 143.5 50.03 142.14 49.4C142.11 49.38 142.01 49.34 141.87 49.26" id="bAcUGl3wu"></path><path d="M146.63 47.29C146.26 47.84 146.03 48.19 145.94 48.33C145.11 49.58 143.5 50.03 142.14 49.4C142.11 49.38 142.01 49.34 141.87 49.26" id="aInQEsxrB"></path><path d="M146.63 43.64L148.93 43.64L147.78 45.56L146.63 47.47L145.49 45.56L144.33 43.64L146.63 43.64Z" id="aJNG3W7ew"></path><path d="M146.63 43.64L148.93 43.64L147.78 45.56L146.63 47.47L145.49 45.56L144.33 43.64L146.63 43.64Z" id="aNQ0CKqi"></path><path d="M128 76.73C125.75 74.5 123.76 72.23 122.04 69.92C120.34 67.62 118.89 65.28 117.73 62.9C117.96 63.57 119.13 66.91 121.24 72.92C125.3 75.21 127.55 76.48 128 76.73Z" id="a4yxb774WU"></path><path d="M139.75 100.7C141.02 100.28 142.81 100.23 145.11 100.53C142.62 100.62 140.81 101.25 139.68 102.45C138.55 103.64 138.09 105.39 138.32 107.69C137.09 104.83 137.06 102.81 138.19 101.63C138.58 101.22 139.09 100.91 139.75 100.7Z" id="b2oMdqYUTG"></path><path d="M197.04 98.82L239.01 80.55" id="a1cUN6s54Y"></path><path d="M222.98 105.6C216.92 107.2 211.64 102.58 205.83 98.24C200.01 93.91 198.08 93.16 194.48 93.5C185.92 94.3 187.77 107.82 188.74 108.79C188.54 106.17 188.79 103.61 189.48 102.02C190.54 99.64 194.96 96.9 202.82 99.11C210.67 101.33 214.16 112.2 224.38 107.69C231.19 104.68 236.22 95.8 239.45 81.07C238.83 82.68 233.43 102.83 222.98 105.6Z" id="i1ergr5VTV"></path></defs><g><g><use xlink:href="#a1s5RrPcle" opacity="1" fill="#818181" fill-opacity="1"></use><g><use xlink:href="#a1s5RrPcle" opacity="1" fill-opacity="0" stroke="#000000" stroke-width="1" stroke-opacity="0"></use></g></g><g><use xlink:href="#crZ6yTRk" opacity="1" fill="#000000" fill-opacity="0"></use><g><use xlink:href="#crZ6yTRk" opacity="1" fill-opacity="0" stroke="#000000" stroke-width="1" stroke-opacity="0"></use></g></g><g><use xlink:href="#a1OAsDIVLq" opacity="1" fill="#eecec5" fill-opacity="1"></use><g><use xlink:href="#a1OAsDIVLq" opacity="1" fill-opacity="0" stroke="#000000" stroke-width="1" stroke-opacity="0"></use></g></g><g><use xlink:href="#aAr4qvRuN" opacity="1" fill="#000000" fill-opacity="0"></use><g><use xlink:href="#aAr4qvRuN" opacity="1" fill-opacity="0" stroke="#000000" stroke-width="1" stroke-opacity="0"></use></g></g><g><use xlink:href="#d3EMRuZ8mB" opacity="1" fill="#818181" fill-opacity="1"></use><g><use xlink:href="#d3EMRuZ8mB" opacity="1" fill-opacity="0" stroke="#000000" stroke-width="1" stroke-opacity="0"></use></g></g><g><use xlink:href="#a1egZziftQ" opacity="1" fill="#000000" fill-opacity="0"></use><g><use xlink:href="#a1egZziftQ" opacity="1" fill-opacity="0" stroke="#000000" stroke-width="1" stroke-opacity="0"></use></g></g><g><use xlink:href="#b2o8GxT4DQ" opacity="1" fill="#333333" fill-opacity="1"></use><g><use xlink:href="#b2o8GxT4DQ" opacity="1" fill-opacity="0" stroke="#000000" stroke-width="1" stroke-opacity="0"></use></g></g><g><use xlink:href="#e2PCX5dKI" opacity="1" fill="#5eab2f" fill-opacity="1"></use><g><use xlink:href="#e2PCX5dKI" opacity="1" fill-opacity="0" stroke="#000000" stroke-width="1" stroke-opacity="0"></use></g></g><g><use xlink:href="#bK6BdQMob" opacity="1" fill="#000000" fill-opacity="0"></use><g><use xlink:href="#bK6BdQMob" opacity="1" fill-opacity="0" stroke="#000000" stroke-width="1" stroke-opacity="0"></use></g></g><g><use xlink:href="#g2sHMUrBb" opacity="1" fill="#5eab2f" fill-opacity="1"></use><g><use xlink:href="#g2sHMUrBb" opacity="1" fill-opacity="0" stroke="#000000" stroke-width="1" stroke-opacity="0"></use></g></g><g><use xlink:href="#dmJRtXmxR" opacity="1" fill="#000000" fill-opacity="0"></use><g><use xlink:href="#dmJRtXmxR" opacity="1" fill-opacity="0" stroke="#000000" stroke-width="1" stroke-opacity="0"></use></g></g><g><use xlink:href="#a1GL4nfF9u" opacity="1" fill="#000000" fill-opacity="1"></use><g><use xlink:href="#a1GL4nfF9u" opacity="1" fill-opacity="0" stroke="#000000" stroke-width="1" stroke-opacity="0"></use></g></g><g><use xlink:href="#eyP7V2PUl" opacity="1" fill="#000000" fill-opacity="0"></use><g><use xlink:href="#eyP7V2PUl" opacity="1" fill-opacity="0" stroke="#000000" stroke-width="1" stroke-opacity="0"></use></g></g><g><use xlink:href="#b10MUBrGp5" opacity="1" fill="#000000" fill-opacity="1"></use><g><use xlink:href="#b10MUBrGp5" opacity="1" fill-opacity="0" stroke="#000000" stroke-width="1" stroke-opacity="0"></use></g></g><g><use xlink:href="#b2soypo7b" opacity="1" fill="#000000" fill-opacity="0"></use><g><use xlink:href="#b2soypo7b" opacity="1" fill-opacity="0" stroke="#000000" stroke-width="1" stroke-opacity="0"></use></g></g><g><use xlink:href="#b22Lc6bqI" opacity="1" fill="#333333" fill-opacity="1"></use><g><use xlink:href="#b22Lc6bqI" opacity="1" fill-opacity="0" stroke="#000000" stroke-width="1" stroke-opacity="0"></use></g></g><g><use xlink:href="#cDHcyGuL8" opacity="1" fill="#333333" fill-opacity="1"></use><g><use xlink:href="#cDHcyGuL8" opacity="1" fill-opacity="0" stroke="#000000" stroke-width="1" stroke-opacity="0"></use></g></g><g><use xlink:href="#h2mfKIw2n" opacity="1" fill="#000000" fill-opacity="0"></use><g><use xlink:href="#h2mfKIw2n" opacity="1" fill-opacity="0" stroke="#000000" stroke-width="1" stroke-opacity="0"></use></g></g><g><use xlink:href="#aj0eVZRmP" opacity="1" fill="#eecec5" fill-opacity="1"></use><g><use xlink:href="#aj0eVZRmP" opacity="1" fill-opacity="0" stroke="#000000" stroke-width="1" stroke-opacity="0"></use></g></g><g><use xlink:href="#c2zJou4EEW" opacity="1" fill="#000000" fill-opacity="0"></use><g><use xlink:href="#c2zJou4EEW" opacity="1" fill-opacity="0" stroke="#000000" stroke-width="1" stroke-opacity="0"></use></g></g><g><use xlink:href="#a2j3YssQE7" opacity="1" fill="#33a897" fill-opacity="1"></use><g><use xlink:href="#a2j3YssQE7" opacity="1" fill-opacity="0" stroke="#000000" stroke-width="1" stroke-opacity="0"></use></g></g><g><use xlink:href="#d3BGvUE83" opacity="1" fill="#211e1c" fill-opacity="1"></use><g><use xlink:href="#d3BGvUE83" opacity="1" fill-opacity="0" stroke="#000000" stroke-width="1" stroke-opacity="0"></use></g></g><g><use xlink:href="#fISDwkesP" opacity="1" fill="#000000" fill-opacity="0"></use><g><use xlink:href="#fISDwkesP" opacity="1" fill-opacity="0" stroke="#000000" stroke-width="1" stroke-opacity="0"></use></g></g><g><use xlink:href="#io5otIK1j" opacity="1" fill="#272323" fill-opacity="1"></use><g><use xlink:href="#io5otIK1j" opacity="1" fill-opacity="0" stroke="#000000" stroke-width="1" stroke-opacity="0"></use></g></g><g><use xlink:href="#n1jNow4L7w" opacity="1" fill="#000000" fill-opacity="0"></use><g><use xlink:href="#n1jNow4L7w" opacity="1" fill-opacity="0" stroke="#000000" stroke-width="1" stroke-opacity="0"></use></g></g><g><use xlink:href="#e1bHZdPCAl" opacity="1" fill="#000000" fill-opacity="0"></use><g><use xlink:href="#e1bHZdPCAl" opacity="1" fill-opacity="0" stroke="#000000" stroke-width="1" stroke-opacity="0"></use></g></g><g><use xlink:href="#b9WduBKn7" opacity="1" fill="#000000" fill-opacity="0"></use><g><use xlink:href="#b9WduBKn7" opacity="1" fill-opacity="0" stroke="#000000" stroke-width="1" stroke-opacity="1"></use></g></g><g><use xlink:href="#bXqGdALQX" opacity="1" fill="#000000" fill-opacity="0"></use><g><use xlink:href="#bXqGdALQX" opacity="1" fill-opacity="0" stroke="#000000" stroke-width="1" stroke-opacity="0"></use></g></g><g><use xlink:href="#i5nZHHv8mm" opacity="1" fill="#000000" fill-opacity="0"></use><g><use xlink:href="#i5nZHHv8mm" opacity="1" fill-opacity="0" stroke="#000000" stroke-width="1" stroke-opacity="1"></use></g></g><g><use xlink:href="#d7jSOI3pG" opacity="1" fill="#000000" fill-opacity="0"></use><g><use xlink:href="#d7jSOI3pG" opacity="1" fill-opacity="0" stroke="#000000" stroke-width="1" stroke-opacity="0"></use></g></g><g><use xlink:href="#frVSAuqgt" opacity="1" fill="#000000" fill-opacity="0"></use><g><use xlink:href="#frVSAuqgt" opacity="1" fill-opacity="0" stroke="#000000" stroke-width="1" stroke-opacity="1"></use></g></g><g><use xlink:href="#a1TmS0Lu1R" opacity="1" fill="#000000" fill-opacity="0"></use><g><use xlink:href="#a1TmS0Lu1R" opacity="1" fill-opacity="0" stroke="#000000" stroke-width="1" stroke-opacity="0"></use></g></g><g><use xlink:href="#d1W7c7152p" opacity="1" fill="#000000" fill-opacity="0"></use><g><use xlink:href="#d1W7c7152p" opacity="1" fill-opacity="0" stroke="#000000" stroke-width="1" stroke-opacity="1"></use></g></g><g><use xlink:href="#a4tM2xIlaE" opacity="1" fill="#c7c9c6" fill-opacity="1"></use><g><use xlink:href="#a4tM2xIlaE" opacity="1" fill-opacity="0" stroke="#000000" stroke-width="1" stroke-opacity="0"></use></g></g><g><use xlink:href="#a5AmvR9uD" opacity="1" fill="#333333" fill-opacity="1"></use><g><use xlink:href="#a5AmvR9uD" opacity="1" fill-opacity="0" stroke="#000000" stroke-width="1" stroke-opacity="0"></use></g></g><g><use xlink:href="#c2ungMiGX" opacity="1" fill="#000000" fill-opacity="0"></use><g><use xlink:href="#c2ungMiGX" opacity="1" fill-opacity="0" stroke="#000000" stroke-width="1" stroke-opacity="0"></use></g></g><g><use xlink:href="#h5jycVfduD" opacity="1" fill="#eecec5" fill-opacity="1"></use><g><use xlink:href="#h5jycVfduD" opacity="1" fill-opacity="0" stroke="#000000" stroke-width="1" stroke-opacity="0"></use></g></g><g><use xlink:href="#m2wRLegF1s" opacity="1" fill="#000000" fill-opacity="0"></use><g><use xlink:href="#m2wRLegF1s" opacity="1" fill-opacity="0" stroke="#000000" stroke-width="1" stroke-opacity="0"></use></g></g><g><use xlink:href="#a2cfBAoB3D" opacity="1" fill="#c7c9c6" fill-opacity="1"></use><g><use xlink:href="#a2cfBAoB3D" opacity="1" fill-opacity="0" stroke="#000000" stroke-width="1" stroke-opacity="0"></use></g></g><g><use xlink:href="#a4NiVxC332" opacity="1" fill="#000000" fill-opacity="0"></use><g><use xlink:href="#a4NiVxC332" opacity="1" fill-opacity="0" stroke="#000000" stroke-width="1" stroke-opacity="0"></use></g></g><g><use xlink:href="#a4LAYIZMnx" opacity="1" fill="#000000" fill-opacity="0"></use><g><use xlink:href="#a4LAYIZMnx" opacity="1" fill-opacity="0" stroke="#000000" stroke-width="1" stroke-opacity="1"></use></g></g><g><use xlink:href="#bAcUGl3wu" opacity="1" fill="#000000" fill-opacity="0"></use><g><use xlink:href="#bAcUGl3wu" opacity="1" fill-opacity="0" stroke="#000000" stroke-width="1" stroke-opacity="0"></use></g></g><g><use xlink:href="#aInQEsxrB" opacity="1" fill="#000000" fill-opacity="0"></use><g><use xlink:href="#aInQEsxrB" opacity="1" fill-opacity="0" stroke="#000000" stroke-width="1" stroke-opacity="1"></use></g></g><g><use xlink:href="#aJNG3W7ew" opacity="1" fill="#c1a7a0" fill-opacity="1"></use><g><use xlink:href="#aJNG3W7ew" opacity="1" fill-opacity="0" stroke="#000000" stroke-width="1" stroke-opacity="0"></use></g></g><g><use xlink:href="#aNQ0CKqi" opacity="1" fill="#000000" fill-opacity="0"></use><g><use xlink:href="#aNQ0CKqi" opacity="1" fill-opacity="0" stroke="#000000" stroke-width="1" stroke-opacity="0"></use></g></g><g><use xlink:href="#a4yxb774WU" opacity="1" fill="#b0b4ae" fill-opacity="1"></use><g><use xlink:href="#a4yxb774WU" opacity="1" fill-opacity="0" stroke="#000000" stroke-width="1" stroke-opacity="0"></use></g></g><g><use xlink:href="#b2oMdqYUTG" opacity="1" fill="#b6b9b4" fill-opacity="1"></use><g><use xlink:href="#b2oMdqYUTG" opacity="1" fill-opacity="0" stroke="#000000" stroke-width="1" stroke-opacity="0"></use></g></g><g><use xlink:href="#a1cUN6s54Y" opacity="1" fill="#000000" fill-opacity="0"></use><g><use xlink:href="#a1cUN6s54Y" opacity="1" fill-opacity="0" stroke="#391717" stroke-width="9" stroke-opacity="0"></use></g></g><g><use xlink:href="#i1ergr5VTV" opacity="1" fill="#2f2c2c" fill-opacity="1"></use><g><use xlink:href="#i1ergr5VTV" opacity="1" fill-opacity="0" stroke="#000000" stroke-width="1" stroke-opacity="0"></use></g></g></g></svg>